<svg width="473" height="118" xmlns="http://www.w3.org/2000/svg"><defs><linearGradient x1="14.646%" y1="14.646%" x2="85.354%" y2="85.354%" id="a"><stop stop-color="#F99D1C" offset="0%"/><stop stop-color="#F26522" offset="100%"/></linearGradient><linearGradient x1="15.791%" y1="16.074%" x2="98.408%" y2="88.226%" id="b"><stop stop-color="#DF7F1B" offset="0%"/><stop stop-color="#D14E1D" offset="100%"/></linearGradient><radialGradient cx="13.417%" cy="15.933%" fx="13.417%" fy="15.933%" r="99.694%" id="c"><stop stop-color="#FFF" offset="0%"/><stop stop-color="#FBFBFC" offset="35%"/><stop stop-color="#F0F1F1" offset="67%"/><stop stop-color="#DDDEDF" offset="98%"/><stop stop-color="#DCDDDE" offset="100%"/></radialGradient><linearGradient x1="14.649%" y1="14.649%" x2="85.359%" y2="85.351%" id="d"><stop stop-color="#DCDDDE" offset="0%"/><stop stop-color="#D8D9DA" offset="20%"/><stop stop-color="#CDCECF" offset="39%"/><stop stop-color="#BABBBD" offset="57%"/><stop stop-color="#A0A1A3" offset="75%"/><stop stop-color="#7E7F82" offset="92%"/><stop stop-color="#6D6E71" offset="100%"/></linearGradient></defs><g fill="none" fill-rule="evenodd"><circle fill="#FFF" fill-rule="nonzero" cx="413.35" cy="58.91" r="58.12"/><circle fill="url(#a)" fill-rule="nonzero" cx="413.35" cy="58.91" r="44.04"/><path d="M372.53 56.84h-3.17A44.05 44.05 0 0 1 397.8 17.7l-.59 3.26a44 44 0 0 0-24.68 35.88zm42.5-34l-1.44-8h-.49l-7.59 42h3.36l6.16-34zm-27 49.07l.3-1.68h-17.55a44 44 0 0 0 13.57 21.81l.2-1.09a44 44 0 0 1-10.71-19h14.15l.04-.04zm35.9 0l-.3-1.68H403.1l-5.4 29.84c1 .39 2.1.74 3.17 1.06l5.28-29.22h17.78zm5-54.22l13.44 74.35c.81-.71 1.59-1.46 2.35-2.23l-12.8-70.85a241.378 241.378 0 0 0-3.03-1.26l.04-.01z" fill="url(#b)" fill-rule="nonzero"/><path d="M413.34 1.67c-31.61.011-57.227 25.643-57.22 57.253.007 31.61 25.636 57.23 57.247 57.227 31.61-.004 57.233-25.63 57.233-57.24a57.24 57.24 0 0 0-57.26-57.24zm-.24 13.2h.5l7.58 42h-15.66l7.58-42zm-28.75 77.17a44 44 0 0 1-13.57-21.81h17.52l-3.95 21.81zm-15-35.21a44.05 44.05 0 0 1 28.44-39.14l-7.08 39.14h-21.36zm44 46.11a43.9 43.9 0 0 1-15.64-2.87l5.4-29.84h20.49l5.39 29.84a43.9 43.9 0 0 1-15.65 2.88l.01-.01zm29-10.9l-13.44-74.35a44 44 0 0 1 13.42 74.35h.02z" fill="url(#c)" fill-rule="nonzero"/><path d="M413.34 0c-32.535 0-58.91 26.375-58.91 58.91s26.375 58.91 58.91 58.91 58.91-26.375 58.91-58.91S445.875 0 413.34 0zm0 116.14c-31.611-.011-57.23-25.645-57.22-57.257.01-31.611 25.642-57.23 57.253-57.223 31.612.007 57.233 25.639 57.227 57.25a57.23 57.23 0 0 1-57.26 57.24v-.01z" fill="url(#d)" fill-rule="nonzero"/><path d="M370.78 70.24h-.8a44.82 44.82 0 0 0 14.22 22.71l.16-.89a44 44 0 0 1-13.58-21.82zm42.56 32.71a43.94 43.94 0 0 1-15.64-2.86l-.14.78a45 45 0 0 0 31.57 0l-.14-.78a44 44 0 0 1-15.65 2.86zm44.82-44.04c-.004-18.819-11.758-35.633-29.43-42.1l.16.89a44 44 0 0 1 13.44 74.36l.16.89a44.71 44.71 0 0 0 15.67-34.04zm-52.77-1.33h15.92l-.14-.75h-15.65l-.13.75zM397.8 17.7l.16-.89a44.84 44.84 0 0 0-29.38 40v.74h22l.14-.74h-21.36A44.06 44.06 0 0 1 397.8 17.7z" fill="#FFF" fill-rule="nonzero"/><path fill="#062665" d="M24.84 35.17l17.87 52.36h-9.48l-3.36-10.74H12.34L8.9 87.53H0l17.79-52.36z"/><path fill="#FFF" d="M21.14 49.32l-6.21 19.39h12.33l-6-19.39h-.17.05z"/><path d="M54.6 46.67v25.26c0 3.36.34 5.12 1.34 6.38 1 1.26 2.94 1.93 5.45 1.93 2.51 0 4.36-.59 5.45-1.93 1.09-1.34 1.34-3 1.34-6.38V46.67h8.56v26.52c0 9.82-5.54 14.85-15.36 14.85s-15.36-5-15.36-14.85V46.67h8.58zm42.19-9.65v9.65h8.65v6.71h-8.65v19.14c0 3.19.34 4.87 1.43 6.12.93 1.18 2.6 1.68 5.12 1.68a12.4 12.4 0 0 0 1.93-.08v7.64a21.59 21.59 0 0 1-3.27.17c-4.87 0-8.31-1.34-10.41-3.78-2.43-2.69-3.36-6-3.36-11.75V53.38h-6.29v-6.71h6.29v-9.65h8.56zm13.69 24.08c0-9.9 5.54-14.94 15.36-14.94s15.36 5 15.36 14.94v12.09c0 9.82-5.54 14.85-15.36 14.85s-15.36-5-15.36-14.85V61.1z" fill="#062665"/><path d="M119.04 71.93c0 3.36.34 5.12 1.34 6.38 1 1.26 2.94 1.93 5.45 1.93 2.51 0 4.36-.59 5.46-1.93 1.1-1.34 1.34-3 1.34-6.38v-9.61c0-3.27-.34-5.12-1.34-6.38-1-1.26-2.94-1.93-5.46-1.93s-4.36.59-5.45 1.93c-1.09 1.34-1.34 3.11-1.34 6.38v9.65-.04z" fill="#FFF"/><path d="M160.24 37.02v9.65h8.65v6.71h-8.65v19.14c0 3.19.34 4.87 1.43 6.12.92 1.18 2.6 1.68 5.12 1.68a12.43 12.43 0 0 0 1.93-.08v7.64a21.61 21.61 0 0 1-3.27.17c-4.87 0-8.31-1.34-10.41-3.78-2.43-2.69-3.36-6-3.36-11.75V53.38h-6.29v-6.71h6.29v-9.65h8.56zm24 9.65l.17 4.7a10.68 10.68 0 0 1 9.57-5.2c1.002 0 2.004.056 3 .17v8.14a17.3 17.3 0 0 0-2.18-.08c-3.44 0-6.12.76-7.8 2.43-1.51 1.6-2.18 3.7-2.18 7.22v23.5h-8.56V46.67h8-.02zm48.17 0v40.87h-7.47l-.17-4.22a11.49 11.49 0 0 1-9.74 4.7 13.61 13.61 0 0 1-9.73-3.52c-2.35-2.35-3.61-5.62-3.61-11.16v-12.5c0-5.54 1.26-8.81 3.61-11.16a13.6 13.6 0 0 1 9.73-3.52c4.11 0 7.55 1.51 9.57 4.28l.25-3.78h7.55l.01.01z" fill="#062665"/><path d="M210.25 71.67c0 3.69.33 5.29 1.6 6.71a6.26 6.26 0 0 0 4.78 1.76 7.47 7.47 0 0 0 5-1.76c1.68-1.6 2.18-3.78 2.18-7.22v-8.22c0-3.36-.5-5.71-2.18-7.3a7 7 0 0 0-5-1.68c-2.27 0-3.69.5-4.78 1.68-1.26 1.34-1.6 3.1-1.6 6.8v9.23z" fill="#FFF"/><path d="M271.35 31.48v56.06h-7.47l-.34-3.94c-1.76 2.77-5.12 4.45-9.4 4.45-3.86 0-7.55-1.18-9.9-3.52-2.35-2.34-3.64-5.64-3.64-11.21v-12.5c0-5.54 1.26-8.81 3.61-11.16 2.35-2.35 6.12-3.52 10-3.52a12.22 12.22 0 0 1 8.56 3.19V31.48h8.58z" fill="#062665"/><path d="M249.19 71.68c0 3.69.34 5.29 1.6 6.71a6.26 6.26 0 0 0 4.79 1.76 7.47 7.47 0 0 0 5-1.76c1.68-1.6 2.18-3.78 2.18-7.22v-8.22c0-3.36-.5-5.71-2.18-7.3a7 7 0 0 0-5-1.68c-2.27 0-3.7.5-4.79 1.68-1.26 1.34-1.6 3.1-1.6 6.8v9.23z" fill="#FFF"/><path d="M279.6 61.1c0-9.9 5.29-14.94 15.11-14.94s15.1 5 15.1 14.94v6.88a2.05 2.05 0 0 1-2.35 2.26h-19.3v1.93c0 4.87.67 8.22 6.55 8.22 4.53 0 6.46-2.18 6.46-6.21h8.43v.14c0 9-5.62 13.68-14.94 13.68-9.82 0-15.11-5-15.11-14.85V61.1h.05z" fill="#062665"/><path d="M288.16 63.45h13.09v-1.34c0-5-.75-8.31-6.55-8.31-5.37 0-6.55 2.85-6.55 8.31v1.34h.01z" fill="#FFF"/><path d="M325.97 46.67l.17 4.7a10.68 10.68 0 0 1 9.57-5.2c1.002 0 2.004.056 3 .17v8.14a17.35 17.35 0 0 0-2.18-.08c-3.44 0-6.12.76-7.8 2.43-1.51 1.6-2.18 3.7-2.18 7.22v23.5H318V46.67h8-.03z" fill="#062665"/></g></svg>