<svg version="1.2" xmlns="http://www.w3.org/2000/svg" viewBox="0 0 1552 358" width="1552" height="358"><style>.a{fill:#3d4d55}.b{fill:#0075c9}.c{fill:#57c1e9}.d{fill:#00a8e1}</style><path class="a" d="m535.4 213.2c2-5.7 5.1-7.8 9.3-7.8q1.6 0.1 3 0.8 1.4 0.7 2.4 1.9 1 1.2 1.5 2.7 0.5 1.5 0.4 3.1c0 11.5-17.7 41.4-55.6 41.4-7.8 0.4-15.6-0.7-23-3.3-7.3-2.7-14.1-6.7-19.9-12-5.8-5.3-10.4-11.6-13.7-18.7-3.3-7.1-5.2-14.8-5.5-22.6-0.5-11.1-0.5-28.2 0-39.5 1.7-32.9 26.7-55.2 62.1-55.2 37.9 0 55 29.3 55 40.9 0.2 1.1 0.1 2.2-0.3 3.2-0.3 1.1-0.9 2.1-1.6 2.9-0.7 0.8-1.6 1.5-2.6 1.9-1 0.5-2.1 0.7-3.2 0.7-4 0-6.8-2-8.8-7.8-1.5-3.9-3.5-7.5-6.1-10.8-2.6-3.3-5.7-6.1-9.1-8.5-3.5-2.3-7.3-4.1-11.3-5.2-4-1.2-8.1-1.7-12.3-1.6-25.8 0-43.8 16.3-44.9 39.4-0.6 10.4-0.8 29.6 0 39.7 0.2 5.7 1.5 11.3 3.9 16.5 2.4 5.2 5.9 9.8 10.1 13.6 4.3 3.8 9.2 6.7 14.6 8.6 5.4 1.8 11.1 2.6 16.8 2.1 4.2 0.1 8.4-0.5 12.4-1.7 3.9-1.3 7.7-3.1 11.2-5.4 3.4-2.4 6.5-5.2 9.1-8.5 2.6-3.3 4.6-6.9 6.1-10.8z"/><path class="a" d="m687.4 232q0.1 1.2-0.1 2.3-0.2 1.1-0.7 2.1-0.4 1.1-1.2 1.9-0.7 0.9-1.7 1.5-6.2 3.9-13 6.9-6.8 3-13.9 5-7.1 1.9-14.4 2.9-7.4 0.9-14.8 0.7c-35 0-53.8-18-53.8-46.5 0-25.7 18.8-45.7 55.2-45.7q5.4 0.1 10.7 0.5 5.3 0.4 10.6 1.2 5.3 0.8 10.5 2 5.2 1.2 10.3 2.8v-12.2c0-26.2-12.4-36.9-38.1-36.9q-4.6 0.1-9.2 0.6-4.6 0.5-9.2 1.5-4.5 1-8.9 2.4-4.4 1.4-8.6 3.3c-7.3 3.1-12.4-1.1-12.4-6.5q0.1-1.2 0.4-2.4 0.4-1.1 1.1-2.2 0.7-1 1.6-1.8 0.9-0.8 2-1.4 5-2.4 10.3-4.2 5.3-1.8 10.7-3.1 5.5-1.2 11-1.9 5.6-0.6 11.2-0.7c35.3 0 54.3 15 54.3 50.8zm-16.3-5v-41.5q-4.9-1.6-10-2.8-5.1-1.3-10.2-2.2-5.1-0.8-10.3-1.3-5.2-0.5-10.4-0.7c-27.5 0-40.1 13.5-40.1 30.4 0 18.9 12.6 30.2 40.1 30.2q5.4-0.1 10.8-0.9 5.3-0.8 10.5-2.3 5.2-1.5 10.1-3.8 5-2.2 9.5-5.1z"/><path class="a" d="m792 115.2c-0.1 1-0.3 2.1-0.8 3-0.5 1-1.2 1.8-2 2.5-0.8 0.7-1.7 1.2-2.8 1.5-1 0.3-2 0.4-3.1 0.3-5.9 0-10.9-2.5-21-2.5-18.8 0-28.1 8.4-28.1 28.1v96.9q0.1 1.6-0.5 3.2-0.5 1.6-1.6 2.8-1.1 1.2-2.6 1.9-1.4 0.8-3.1 0.9-1.6-0.2-3.1-0.9-1.4-0.7-2.5-2-1.1-1.2-1.7-2.7-0.5-1.6-0.4-3.2v-97.7c0-27.1 15.5-43.2 44-43.2q2.9 0 5.8 0.2 3 0.1 5.9 0.5 2.9 0.4 5.8 0.9 2.9 0.6 5.7 1.3 1.5 0.3 2.7 1 1.3 0.7 2.2 1.9 0.9 1.1 1.4 2.4 0.5 1.4 0.5 2.9"/><path class="a" d="m858.4 103.8q5.6 0.2 11.2 0.8 5.5 0.7 11 1.9 5.5 1.2 10.8 3 5.3 1.7 10.5 4v-51.6c0-2.1 0.8-4.2 2.4-5.7 1.5-1.6 3.6-2.4 5.7-2.4 2.2 0 4.2 0.8 5.8 2.4 1.5 1.5 2.4 3.6 2.4 5.7v168.7q0.1 1.2 0 2.3-0.2 1.1-0.7 2.2-0.5 1-1.2 1.9-0.8 0.8-1.8 1.4-6 4-12.5 7.1-6.5 3.1-13.4 5.3-6.9 2.2-14.1 3.4-7.1 1.2-14.3 1.4c-36.8 0-57.5-21.4-60.3-56.6q-0.3-4.9-0.5-9.9-0.1-4.9-0.1-9.8 0-5 0.1-9.9 0.2-4.9 0.5-9.8c3-35.6 23.3-55.3 58.3-55.3m2.5 135.3q5.4-0.1 10.8-1 5.4-0.9 10.6-2.5 5.2-1.6 10.2-3.9 5-2.3 9.6-5.2v-96.1q-5.1-2.7-10.5-4.7-5.4-2-11-3.4-5.6-1.4-11.4-2.1-5.7-0.7-11.4-0.7c-26.3 0-38.8 13.2-40.9 38.8q-0.4 5-0.6 10-0.2 5.1-0.2 10.1 0 5.1 0.2 10.1 0.2 5 0.6 10.1c2.8 26.7 16.8 40.2 44 40.2"/><path class="a" d="m985.5 67v171.6c0.1 2-0.2 4-0.9 5.9-0.7 1.9-1.8 3.6-3.2 5-1.4 1.5-3 2.7-4.9 3.4-1.9 0.8-3.9 1.2-5.9 1.2-2-0.1-3.9-0.6-5.7-1.4-1.8-0.8-3.5-1.9-4.9-3.4-1.3-1.4-2.4-3.1-3.2-4.9-0.7-1.9-1.1-3.9-1.1-5.8v-171.6c0-4 1.6-7.8 4.4-10.6 2.8-2.8 6.6-4.3 10.5-4.3 4 0 7.8 1.5 10.6 4.3 2.8 2.8 4.3 6.6 4.3 10.6z"/><path class="a" d="m1001 124.5c-1-2.3-1.4-4.8-1.2-7.3 0.2-2.5 0.9-5 2.3-7.1 1.3-2.1 3.1-3.9 5.3-5.2 2.1-1.3 4.6-2 7.1-2.2 1.7 0 3.3 0.3 5 0.8 1.6 0.5 3.1 1.3 4.4 2.3 1.4 1 2.6 2.2 3.5 3.6 1 1.4 1.7 3 2.2 4.6l37.9 91c0 0.6 0.5 0.9 1.1 0.9q0.2 0 0.4-0.1 0.2 0 0.4-0.1 0.2-0.1 0.4-0.3 0.1-0.2 0.2-0.4l34.8-90.4c0.4-1.7 1.2-3.3 2.2-4.7 0.9-1.5 2.1-2.8 3.5-3.8 1.4-1.1 3-1.9 4.7-2.5 1.6-0.6 3.4-0.9 5.1-0.9 2.6 0.1 5.1 0.7 7.3 2 2.3 1.2 4.2 3 5.6 5.1 1.4 2.2 2.2 4.7 2.4 7.2q0.3 3.9-1.2 7.5l-52.8 125.9c-11.2 26.7-26.6 45.6-38.1 53q-1.4 0.9-2.9 1.7-1.5 0.7-3.1 1.2-1.7 0.6-3.3 0.9-1.7 0.3-3.4 0.4c-1.8 0-3.7-0.3-5.4-1-1.8-0.7-3.4-1.7-4.7-3-1.4-1.3-2.4-2.9-3.1-4.6-0.7-1.8-1.1-3.6-1-5.5q0-1.8 0.4-3.5 0.4-1.7 1.2-3.3 0.8-1.6 2-3 1.1-1.3 2.6-2.4 5.1-3.5 9.6-7.8 4.5-4.2 8.2-9.2 3.8-4.9 6.7-10.4 2.9-5.5 4.9-11.4z"/><path class="a" d="m1284.1 121.4c0-1.8-0.4-3.6-1.2-5.2-0.7-1.6-1.7-3.1-3.1-4.3-1.3-1.3-2.8-2.2-4.5-2.9-1.6-0.6-3.4-0.9-5.2-0.8h-91.6v-21.2c0.1-2-0.3-4-1-5.9-0.7-1.8-1.8-3.6-3.2-5-1.4-1.4-3-2.6-4.9-3.4-1.8-0.8-3.8-1.2-5.8-1.2-2 0-4 0.4-5.8 1.2-1.9 0.7-3.6 1.9-4.9 3.4-1.4 1.4-2.5 3.1-3.2 5-0.7 1.9-1.1 3.9-1 5.9v117.7c0 28.7 14.6 50.8 46.6 50.8q3.9 0 7.9-0.3 3.9-0.3 7.8-1 4-0.7 7.8-1.7 3.8-1 7.5-2.5 2.2-0.6 4.1-2 1.9-1.3 3.2-3.2 1.4-1.8 2.1-4 0.7-2.2 0.7-4.5c0.1-2.2-0.4-4.4-1.4-6.4-0.9-2-2.4-3.7-4.1-5-1.8-1.3-3.9-2.2-6.1-2.5-2.2-0.3-4.4-0.1-6.5 0.6q-2.4 0.9-4.9 1.6-2.5 0.7-5 1.3-2.6 0.5-5.1 0.9-2.6 0.3-5.2 0.5c-13.7 0-19.8-8.2-19.8-22.3v-70.4h75.9v104c0 1.9 0.3 3.9 1.1 5.7 0.7 1.9 1.8 3.6 3.2 5 1.3 1.4 3 2.6 4.8 3.4 1.8 0.8 3.7 1.3 5.7 1.4 2 0 4-0.4 5.8-1.2 1.9-0.8 3.6-1.9 5-3.4 1.3-1.4 2.4-3.2 3.1-5 0.8-1.9 1.1-3.9 1-5.9v-117.2m-14.9-38.1c2.2 0 4.4-0.5 6.4-1.4 2-0.9 3.9-2.2 5.4-3.8 1.5-1.6 2.8-3.4 3.6-5.5 0.8-2.1 1.2-4.3 1.1-6.5-0.3-4.2-2.1-8.2-5.2-11-3.1-2.9-7.2-4.5-11.4-4.5-4.3 0-8.3 1.6-11.4 4.5-3.1 2.8-5 6.8-5.3 11q0 3.4 1.2 6.6c0.8 2.1 2 4 3.6 5.6 1.5 1.6 3.4 2.9 5.5 3.7 2 0.9 4.3 1.3 6.5 1.3z"/><path class="a" d="m1402.3 206.4q0.8-1.8 2.2-3.3 1.3-1.5 3-2.6 1.8-1 3.7-1.5 2-0.5 4-0.3 3 0 5.7 1.2c1.8 0.8 3.4 2 4.7 3.4 1.3 1.5 2.4 3.2 3 5.1 0.6 1.9 0.8 3.8 0.6 5.8 0 14-19.8 41.9-59.7 41.9-8 0.3-16.1-0.9-23.6-3.6-7.6-2.8-14.6-6.9-20.6-12.3-5.9-5.3-10.8-11.8-14.4-19-3.5-7.2-5.6-15.1-6.2-23.1-0.6-11.5-0.6-28.7 0-40 2.2-33.5 28.9-56.6 64.8-56.6 39.9 0 59.2 27.9 59.2 42 0.2 1.9-0.1 3.9-0.7 5.8-0.6 1.9-1.6 3.6-2.9 5-1.3 1.5-2.9 2.7-4.7 3.5-1.8 0.8-3.8 1.2-5.8 1.2q-2 0.1-3.9-0.5-2-0.5-3.7-1.6-1.6-1.1-2.9-2.7-1.3-1.6-2.1-3.4c-1.3-3.1-3.1-6-5.3-8.5-2.1-2.6-4.7-4.8-7.5-6.6-2.8-1.8-5.9-3.2-9.2-4q-4.8-1.3-9.9-1.2c-21 0-34 11.8-35.6 31.1q-0.3 4.2-0.4 8.3-0.2 4.2-0.2 8.4 0 4.2 0.2 8.4 0.1 4.2 0.4 8.4c0.1 4.5 1.1 9 2.9 13.1 1.9 4.1 4.6 7.8 7.9 10.9 3.3 3 7.2 5.4 11.5 6.9 4.3 1.5 8.8 2.1 13.3 1.8 3.4 0.1 6.7-0.3 10-1.2 3.3-0.8 6.4-2.2 9.2-4 2.9-1.8 5.4-4 7.7-6.6 2.2-2.5 4-5.4 5.3-8.5"/><path class="a" d="m1552 209c0 28.4-23.8 46.6-56.3 46.6q-6.9 0.3-13.8-0.5-6.9-0.9-13.5-2.9-6.6-2-12.7-5.2-6.2-3.2-11.6-7.4c-1.4-1.2-2.5-2.6-3.4-4.1-0.8-1.6-1.4-3.2-1.6-5-0.3-1.7-0.2-3.5 0.2-5.2 0.3-1.8 1-3.4 2-4.9 1-1.5 2.4-2.8 4-3.8 1.6-0.9 3.3-1.6 5.1-1.8 1.9-0.3 3.7-0.2 5.5 0.3 1.8 0.5 3.5 1.4 4.9 2.5q3.9 2.9 8.2 5.1 4.4 2.1 9 3.5 4.6 1.4 9.4 2 4.8 0.6 9.7 0.3c17 0 25.7-7.7 25.7-18.5 0-8.2-5-13.3-19.3-16.7-9.5-2.2-9.5-1.9-20.2-4.7-24.7-6.2-40.6-19.5-40.6-42.3 0-28.2 23.8-45.3 55.2-45.3q5.7-0.1 11.2 0.7 5.6 0.8 11 2.5 5.4 1.6 10.5 4.1 5 2.6 9.6 5.9c1.3 1.2 2.4 2.6 3.1 4.2 0.8 1.6 1.3 3.3 1.4 5.1 0.1 1.7-0.1 3.5-0.6 5.2-0.5 1.7-1.4 3.2-2.5 4.6-1.2 1.3-2.7 2.3-4.3 3-1.6 0.8-3.3 1.2-5 1.4-1.7 0.2-3.5 0.1-5.2-0.3q-2.5-0.6-4.8-2.1-2.9-1.7-6-3.1-3.2-1.3-6.4-2.2-3.3-0.9-6.7-1.3-3.4-0.5-6.8-0.4c-17 0-25.2 6.2-25.2 17.4 0 7.8 4.8 12.1 19.4 15.6l21.9 5.1c26.1 6.4 39.5 20.2 39.5 42.6z"/><path fill-rule="evenodd" class="b" d="m213.2 72.4v71.4h-71v-71.4z"/><path fill-rule="evenodd" class="c" d="m0 1v214.2h71.1v-71.4h71.1v-71.4h71v-71.4z"/><path fill-rule="evenodd" class="b" d="m142.2 143.8v71.4h-71.1v-71.4z"/><path fill-rule="evenodd" class="b" d="m213.2 143.8v71.4h-71v71.4h142.1v-142.8z"/><path fill-rule="evenodd" class="c" d="m213.2 72.4v71.4h71.1v142.8h71.1v-214.2z"/><path fill-rule="evenodd" class="d" d="m142.2 286.6v-71.4h-71.1v142.8h213.2v-71.4z"/></svg>